<svg xmlns="http://www.w3.org/2000/svg" width="26" height="26" viewBox="0 0 26 26">
  <defs>
    <style>
      .cls-1 {
        fill: #ed1c24;
        fill-rule: evenodd;
      }
    </style>
  </defs>
  <path id="icon" class="cls-1" d="M1419,31h-24a1.368,1.368,0,0,0-1,1v7a1.368,1.368,0,0,0,1,1h1a1.368,1.368,0,0,0,1-1V34h20V54h-20V49a1.368,1.368,0,0,0-1-1h-1a1.368,1.368,0,0,0-1,1v7a1.368,1.368,0,0,0,1,1h24a1.368,1.368,0,0,0,1-1V32A1.368,1.368,0,0,0,1419,31Zm-22.01,12.234v1.531a0.586,0.586,0,0,0,.59.574h8.43l-2.66,2.6a0.57,0.57,0,0,0,0,.812l1.11,1.083a0.6,0.6,0,0,0,.83,0l5.55-5.428a0.57,0.57,0,0,0,0-.812l-5.55-5.428a0.6,0.6,0,0,0-.83,0l-1.11,1.083a0.564,0.564,0,0,0,0,.812l2.66,2.6h-8.43A0.586,0.586,0,0,0,1396.99,43.234Z" transform="translate(-1394 -31)"/>
</svg>
