<svg xmlns="http://www.w3.org/2000/svg" width="26.47" height="26" viewBox="0 0 26.47 26">
  <defs>
    <style>
      .cls-1 {
        fill: #fff;
        fill-rule: evenodd;
      }
    </style>
  </defs>
  <path id="Forma_1" data-name="Forma 1" class="cls-1" d="M1485.77,1175a13,13,0,1,0,13.23,13A13.127,13.127,0,0,0,1485.77,1175Zm5.9,10.02c0,0.13.01,0.26,0.01,0.39a8.526,8.526,0,0,1-8.67,8.51,8.67,8.67,0,0,1-4.66-1.34,5.687,5.687,0,0,0,.72.04,6.177,6.177,0,0,0,3.78-1.28,3.036,3.036,0,0,1-2.84-2.08,2.69,2.69,0,0,0,.57.06,2.973,2.973,0,0,0,.8-0.11,3,3,0,0,1-2.44-2.93v-0.04a3.059,3.059,0,0,0,1.38.38,2.976,2.976,0,0,1-.94-4,8.7,8.7,0,0,0,6.27,3.13,3.078,3.078,0,0,1-.07-0.68,3.009,3.009,0,0,1,3.04-2.99,3.046,3.046,0,0,1,2.22.94,5.9,5.9,0,0,0,1.94-.73,3.023,3.023,0,0,1-1.34,1.66,6.123,6.123,0,0,0,1.75-.47A6.179,6.179,0,0,1,1491.67,1185.02Z" transform="translate(-1472.53 -1175)"/>
</svg>
