<svg xmlns="http://www.w3.org/2000/svg" width="26.47" height="26" viewBox="0 0 26.47 26">
  <defs>
    <style>
      .cls-1 {
        fill: #fff;
        fill-rule: evenodd;
      }
    </style>
  </defs>
  <path id="Forma_1" data-name="Forma 1" class="cls-1" d="M1413.23,1175a13,13,0,1,0,13.23,13A13.121,13.121,0,0,0,1413.23,1175Zm5.73,14.89c0.62,0.59,1.27,1.15,1.83,1.8a5.881,5.881,0,0,1,.65.92,0.668,0.668,0,0,1-.41,1.04l-2.71-.01a2.111,2.111,0,0,1-1.73-.69c-0.37-.37-0.72-0.77-1.08-1.16a2.851,2.851,0,0,0-.49-0.43,0.572,0.572,0,0,0-.9.22,2.69,2.69,0,0,0-.29,1.24,0.707,0.707,0,0,1-.86.82,6.98,6.98,0,0,1-3.88-.82,8.324,8.324,0,0,1-2.61-2.4,31.993,31.993,0,0,1-3.44-6.01c-0.22-.48-0.06-0.73.48-0.74,0.88-.02,1.76-0.02,2.65,0a0.78,0.78,0,0,1,.74.54,15.743,15.743,0,0,0,1.79,3.27,2.832,2.832,0,0,0,.68.74,0.423,0.423,0,0,0,.71-0.2,2.37,2.37,0,0,0,.15-0.69,10.229,10.229,0,0,0-.04-2.41,1.02,1.02,0,0,0-.87-0.92c-0.26-.05-0.22-0.14-0.1-0.28a0.977,0.977,0,0,1,.84-0.41h3.06a0.722,0.722,0,0,1,.66.78v3.35a0.95,0.95,0,0,0,.43.85,0.608,0.608,0,0,0,.61-0.29,10.306,10.306,0,0,0,1.73-2.61c0.2-.41.38-0.84,0.56-1.27a0.656,0.656,0,0,1,.69-0.46h2.95a1.14,1.14,0,0,1,.26.02,0.5,0.5,0,0,1,.48.77,7.139,7.139,0,0,1-1.17,1.99c-0.5.67-1.02,1.32-1.51,1.99A0.9,0.9,0,0,0,1418.96,1189.89Z" transform="translate(-1400 -1175)"/>
</svg>
