<svg xmlns="http://www.w3.org/2000/svg"><defs><style/></defs><symbol viewBox="0 0 16 12.812" id="svg-check"> <path d="M1102.84,410.6l-1.78-1.833a0.537,0.537,0,0,0-.77,0l-7.43,7.633-3.16-3.246a0.525,0.525,0,0,0-.76,0l-1.79,1.832a0.568,0.568,0,0,0,0,.785l5.33,5.471a0.529,0.529,0,0,0,.38.163,0.513,0.513,0,0,0,.38-0.163l9.6-9.857A0.561,0.561,0,0,0,1102.84,410.6Z" transform="translate(-1087 -408.594)"/> </symbol><symbol viewBox="0 42 42 42" id="svg-crest"> <path d="M0,52.5L10.5,42L21,52.5L31.5,42L42,52.5L31.5,63L42,73.5L31.5,84L21,73.5L10.5,84L0,73.2l10.5-10.5L0,52.5z"/> </symbol><symbol viewBox="0 0 124.969 97" id="svg-icon_accept"> <path d="M1029.76,359.116l-13.93-13.885a4.232,4.232,0,0,0-5.97,0l-58.037,57.84-24.685-24.6a4.233,4.233,0,0,0-5.971,0l-13.932,13.885a4.2,4.2,0,0,0,0,5.951l41.6,41.46a4.232,4.232,0,0,0,5.972,0l74.951-74.7A4.19,4.19,0,0,0,1029.76,359.116Z" transform="translate(-906.031 -344)"/> </symbol><symbol viewBox="0 0 26 26" id="svg-icon_login"> <path d="M1419,31h-24a1.368,1.368,0,0,0-1,1v7a1.368,1.368,0,0,0,1,1h1a1.368,1.368,0,0,0,1-1V34h20V54h-20V49a1.368,1.368,0,0,0-1-1h-1a1.368,1.368,0,0,0-1,1v7a1.368,1.368,0,0,0,1,1h24a1.368,1.368,0,0,0,1-1V32A1.368,1.368,0,0,0,1419,31Zm-22.01,12.234v1.531a0.586,0.586,0,0,0,.59.574h8.43l-2.66,2.6a0.57,0.57,0,0,0,0,.812l1.11,1.083a0.6,0.6,0,0,0,.83,0l5.55-5.428a0.57,0.57,0,0,0,0-.812l-5.55-5.428a0.6,0.6,0,0,0-.83,0l-1.11,1.083a0.564,0.564,0,0,0,0,.812l2.66,2.6h-8.43A0.586,0.586,0,0,0,1396.99,43.234Z" transform="translate(-1394 -31)"/> </symbol><symbol viewBox="0 42 26 26" id="svg-social_f"> <path d="M12.8,42C5.6,42.1-0.1,48,0,55.2S6,68.1,13.2,68C20.3,67.9,26,62.1,26,55C26,47.8,20.1,41.9,12.8,42z M16.1,55.5h-2.2V63 h-3.1v-7.5H9.3v-2.7h1.5v-1.7c-0.1-1.6,1.1-3,2.7-3.2c0.2,0,0.3,0,0.5,0h2.4v2.6h-1.7c-0.4,0-0.7,0.3-0.7,0.6v0.1v1.6h2.4L16.1,55.5 z"/> </symbol><symbol viewBox="-17 35 26 26" id="svg-social_twitter"> <path d="M-3.9,35c-7.2,0.1-12.9,6-12.8,13.2s6,12.9,13.2,12.8c7.1-0.1,12.8-5.9,12.8-13C9.3,40.8,3.3,34.9-3.9,35z M2,45 c0,0.1,0,0.3,0,0.4c0,4.7-3.8,8.5-8.5,8.5h-0.1c-1.6,0-3.3-0.5-4.7-1.3c0.2,0,0.5,0,0.7,0c1.4,0,2.7-0.4,3.8-1.3 c-1.3,0-2.4-0.9-2.8-2.1c0.2,0,0.4,0.1,0.6,0.1c0.3,0,0.5,0,0.8-0.1c-1.4-0.3-2.4-1.5-2.4-2.9l0,0c0.4,0.2,0.9,0.4,1.4,0.4 c-1.3-0.9-1.7-2.6-0.9-4c1.6,1.9,3.8,3,6.3,3.1c0-0.2-0.1-0.5-0.1-0.7c0-1.7,1.4-3,3-3l0,0c0.8,0,1.6,0.3,2.2,0.9 c0.7-0.1,1.3-0.4,1.9-0.7C2.9,43,2.4,43.6,1.8,44c0.6-0.1,1.2-0.2,1.7-0.5C3.1,44.1,2.6,44.6,2,45z"/> </symbol><symbol viewBox="0 42 26 26" id="svg-social_vk"> <path d="M12.8,42.1C5.6,42.2,0,48,0.1,55.2S6,68,13.2,67.9c7.1-0.1,12.7-5.9,12.7-12.9C25.9,47.8,20,42,12.8,42.1z M18.5,56.9c0.7,0.6,1.3,1.1,1.9,1.8c0.2,0.3,0.4,0.6,0.6,0.9c0.2,0.3,0.1,0.7-0.2,0.9c-0.1,0.1-0.2,0.1-0.3,0.1h-2.7 c-0.7,0.1-1.3-0.2-1.7-0.7c-0.4-0.4-0.7-0.8-1.1-1.2c-0.1-0.2-0.3-0.3-0.5-0.4c-0.2-0.2-0.6-0.2-0.8,0.1c0,0-0.1,0.1-0.1,0.2 c-0.2,0.4-0.3,0.8-0.3,1.2c0.1,0.4-0.2,0.8-0.6,0.8c-0.1,0-0.2,0-0.3,0c-1.3,0.1-2.7-0.2-3.9-0.8c-1-0.6-1.9-1.4-2.6-2.4 c-1.4-1.9-2.5-3.9-3.4-6c-0.2-0.5-0.1-0.7,0.5-0.7c0.9,0,1.8,0,2.7,0c0.3,0,0.6,0.2,0.7,0.5c0.5,1.2,1.1,2.3,1.8,3.3 c0.2,0.3,0.4,0.5,0.7,0.7c0.2,0.2,0.4,0.2,0.6,0c0.1-0.1,0.1-0.1,0.1-0.2c0.1-0.2,0.1-0.5,0.2-0.7c0.1-0.8,0.1-1.6,0-2.4 c0-0.5-0.4-0.9-0.9-0.9c-0.3,0-0.2-0.1-0.1-0.3c0.2-0.3,0.5-0.4,0.8-0.4h3.1c0.4,0,0.7,0.4,0.7,0.8l0,0v3.3c0,0.3,0.1,0.7,0.4,0.8 c0.2,0,0.5-0.1,0.6-0.3c0.7-0.8,1.3-1.7,1.7-2.6c0.2-0.4,0.4-0.8,0.6-1.3c0.1-0.3,0.4-0.5,0.7-0.5h2.9c0.1,0,0.2,0,0.3,0 c0.3,0,0.5,0.2,0.6,0.4c0,0.1,0,0.2-0.1,0.3c-0.3,0.7-0.7,1.4-1.2,2c-0.5,0.7-1,1.3-1.5,2c-0.4,0.3-0.4,0.9-0.1,1.3 C18.4,56.8,18.4,56.8,18.5,56.9z"/> </symbol></svg>