<svg version="1.1" xmlns="http://www.w3.org/2000/svg" xmlns:xlink="http://www.w3.org/1999/xlink" x="0px" y="0px" width="26" height="26" viewBox="-17 35 26 26" enable-background="new -17 35 26 26" xml:space="preserve">
	<path d="M-3.9,35c-7.2,0.1-12.9,6-12.8,13.2s6,12.9,13.2,12.8c7.1-0.1,12.8-5.9,12.8-13C9.3,40.8,3.3,34.9-3.9,35z M2,45 c0,0.1,0,0.3,0,0.4c0,4.7-3.8,8.5-8.5,8.5h-0.1c-1.6,0-3.3-0.5-4.7-1.3c0.2,0,0.5,0,0.7,0c1.4,0,2.7-0.4,3.8-1.3 c-1.3,0-2.4-0.9-2.8-2.1c0.2,0,0.4,0.1,0.6,0.1c0.3,0,0.5,0,0.8-0.1c-1.4-0.3-2.4-1.5-2.4-2.9l0,0c0.4,0.2,0.9,0.4,1.4,0.4 c-1.3-0.9-1.7-2.6-0.9-4c1.6,1.9,3.8,3,6.3,3.1c0-0.2-0.1-0.5-0.1-0.7c0-1.7,1.4-3,3-3l0,0c0.8,0,1.6,0.3,2.2,0.9 c0.7-0.1,1.3-0.4,1.9-0.7C2.9,43,2.4,43.6,1.8,44c0.6-0.1,1.2-0.2,1.7-0.5C3.1,44.1,2.6,44.6,2,45z"/>
</svg>
