<svg version="1.1" xmlns="http://www.w3.org/2000/svg" xmlns:xlink="http://www.w3.org/1999/xlink" x="0px" y="0px" width="26" height="26" viewBox="0 42 26 26" enable-background="new 0 42 26 26" xml:space="preserve">
	<path d="M12.8,42.1C5.6,42.2,0,48,0.1,55.2S6,68,13.2,67.9c7.1-0.1,12.7-5.9,12.7-12.9C25.9,47.8,20,42,12.8,42.1z M18.5,56.9c0.7,0.6,1.3,1.1,1.9,1.8c0.2,0.3,0.4,0.6,0.6,0.9c0.2,0.3,0.1,0.7-0.2,0.9c-0.1,0.1-0.2,0.1-0.3,0.1h-2.7 c-0.7,0.1-1.3-0.2-1.7-0.7c-0.4-0.4-0.7-0.8-1.1-1.2c-0.1-0.2-0.3-0.3-0.5-0.4c-0.2-0.2-0.6-0.2-0.8,0.1c0,0-0.1,0.1-0.1,0.2 c-0.2,0.4-0.3,0.8-0.3,1.2c0.1,0.4-0.2,0.8-0.6,0.8c-0.1,0-0.2,0-0.3,0c-1.3,0.1-2.7-0.2-3.9-0.8c-1-0.6-1.9-1.4-2.6-2.4 c-1.4-1.9-2.5-3.9-3.4-6c-0.2-0.5-0.1-0.7,0.5-0.7c0.9,0,1.8,0,2.7,0c0.3,0,0.6,0.2,0.7,0.5c0.5,1.2,1.1,2.3,1.8,3.3 c0.2,0.3,0.4,0.5,0.7,0.7c0.2,0.2,0.4,0.2,0.6,0c0.1-0.1,0.1-0.1,0.1-0.2c0.1-0.2,0.1-0.5,0.2-0.7c0.1-0.8,0.1-1.6,0-2.4 c0-0.5-0.4-0.9-0.9-0.9c-0.3,0-0.2-0.1-0.1-0.3c0.2-0.3,0.5-0.4,0.8-0.4h3.1c0.4,0,0.7,0.4,0.7,0.8l0,0v3.3c0,0.3,0.1,0.7,0.4,0.8 c0.2,0,0.5-0.1,0.6-0.3c0.7-0.8,1.3-1.7,1.7-2.6c0.2-0.4,0.4-0.8,0.6-1.3c0.1-0.3,0.4-0.5,0.7-0.5h2.9c0.1,0,0.2,0,0.3,0 c0.3,0,0.5,0.2,0.6,0.4c0,0.1,0,0.2-0.1,0.3c-0.3,0.7-0.7,1.4-1.2,2c-0.5,0.7-1,1.3-1.5,2c-0.4,0.3-0.4,0.9-0.1,1.3 C18.4,56.8,18.4,56.8,18.5,56.9z"/>
</svg>
